<?xml version="1.0" encoding="utf-8"?>
<!-- Generator: Adobe Illustrator 28.1.0, SVG Export Plug-In . SVG Version: 6.00 Build 0)  -->
<svg version="1.1" id="Layer_1" xmlns="http://www.w3.org/2000/svg" xmlns:xlink="http://www.w3.org/1999/xlink" x="100px" y="50px"
	 viewBox="0 0 367.3 126.9" style="enable-background:new 0 0 367.3 126.9;" xml:space="preserve">
<style type="text/css">
	.st0{fill:#6621BA;}
	.st1{fill:#F87B0F;}
</style>
<g>
	<path class="st0" d="M11.7,82.7H41c4.1,0,7.5,3.3,7.5,7.5v29.2c0,4.1-3.3,7.5-7.5,7.5H11.7c-4.1,0-7.5-3.3-7.5-7.5V90.2
		C4.2,86.1,7.6,82.7,11.7,82.7z"/>
	<circle class="st1" cx="76.3" cy="104.8" r="22.1"/>
	<path class="st1" d="M49.7,0H34.4c-0.8,0-1.4,0.6-1.4,1.4c0,0.3,0.1,0.7,0.3,0.9l4.3,5.3c0.4,0.5,0.4,1.2,0,1.8l-4.3,5.3
		c-0.5,0.6-0.4,1.5,0.2,2c0.3,0.2,0.6,0.3,0.9,0.3h15.3c0.8,0,1.4-0.6,1.4-1.4V1.4C51.1,0.6,50.5,0,49.7,0C49.7,0,49.7,0,49.7,0z"/>
	<path class="st0" d="M100.5,67.7L55.8,23.1c-2.5-2.6-6.7-2.6-9.2,0c0,0,0,0,0,0L2,67.7c-2.6,2.6-2.5,6.7,0,9.2
		c1.2,1.2,2.9,1.9,4.6,1.9h89.3c3.6,0,6.5-2.9,6.5-6.5C102.4,70.6,101.7,68.9,100.5,67.7z"/>
</g>
<g>
	<path class="st0" d="M147.7,45.9v42.8H135V45.9H147.7z M172.1,45.9l-11.3,19.4l11.2,23.4h-14.3l-9.7-23.6l11-19.1H172.1z"/>
	<path class="st0" d="M187.2,57.5v31.2h-11.7V57.5H187.2z M181.4,43.5c1.6,0,3,0.6,4.1,1.7s1.7,2.4,1.7,4c0,1.6-0.5,3-1.6,4
		c-1.1,1-2.5,1.6-4.2,1.6c-1.7,0-3.1-0.5-4.2-1.6c-1.1-1-1.6-2.4-1.6-4c0-1.5,0.6-2.8,1.7-4S179.8,43.5,181.4,43.5z"/>
	<path class="st0" d="M213.4,45.9h11.7v26c0,4.8-1.3,8.7-3.8,11.7c-1.4,1.7-3.3,3.1-5.5,4.1c-2.2,1-4.5,1.5-6.8,1.5
		c-4.7,0-8.6-1.6-11.8-4.7s-4.8-7-4.8-11.5c0-4.4,1.6-8.2,4.8-11.4c3.2-3.2,6.9-4.8,11.3-4.8c0.7,0,1.7,0.1,3.1,0.2v12.9
		c-1-0.8-1.9-1.1-2.9-1.1c-1.2,0-2.3,0.4-3.1,1.3c-0.9,0.9-1.3,2-1.3,3.2c0,1.2,0.4,2.3,1.3,3.1c0.9,0.9,2,1.3,3.2,1.3
		c3,0,4.5-2.1,4.5-6.2V45.9z"/>
	<path class="st0" d="M257.3,57.5l-9.6,19h11v12.3h-30.1l9.5-19h-9.9V57.5H257.3z"/>
	<path class="st0" d="M277.8,56.8c4.4,0,8.2,1.6,11.4,4.8c3.2,3.2,4.7,7,4.7,11.5c0,4.5-1.6,8.4-4.8,11.5c-3.2,3.2-7.1,4.8-11.6,4.8
		c-4.5,0-8.4-1.6-11.6-4.8c-3.2-3.2-4.8-7-4.8-11.5c0-4.6,1.6-8.4,4.8-11.5C269.2,58.4,273.1,56.8,277.8,56.8z M277.5,68.4
		c-1.3,0-2.3,0.5-3.2,1.4c-0.9,0.9-1.3,2-1.3,3.3c0,1.3,0.4,2.4,1.3,3.3c0.9,0.9,1.9,1.4,3.2,1.4c1.3,0,2.3-0.5,3.2-1.4
		c0.9-0.9,1.3-2,1.3-3.3c0-1.3-0.4-2.4-1.3-3.3C279.9,68.8,278.8,68.4,277.5,68.4z"/>
	<path class="st0" d="M326.7,88.7H315V71.1c0-1.8-0.7-2.7-2.2-2.7c-1.5,0-2.2,0.9-2.2,2.7v17.6h-11.7V71.3c0-4.1,1.3-7.5,4-10.3
		c2.7-2.8,6-4.2,9.9-4.2c4.5,0,8.1,1.6,10.7,4.9c2.1,2.5,3.2,6,3.2,10.6V88.7z"/>
	<path class="st0" d="M364.3,75h-17.8c-0.3-0.9-0.4-1.7-0.4-2.5c0-1,0.2-2.1,0.6-3.1h6c-0.4-2.3-1.7-3.5-3.9-3.5
		c-1.5,0-2.7,0.6-3.6,1.9c-0.9,1.2-1.4,2.8-1.4,4.8c0,2,0.4,3.7,1.3,4.9c0.9,1.3,2.1,1.9,3.5,1.9c1.2,0,2.3-0.6,3.4-1.8l6.7,8
		c-3.1,2.4-6.6,3.7-10.4,3.7c-4.6,0-8.5-1.6-11.7-4.7c-3.2-3.1-4.7-7-4.7-11.6c0-4.6,1.6-8.4,4.8-11.6c3.2-3.2,7.1-4.7,11.7-4.7
		c4.5,0,8.3,1.5,11.4,4.6c3.1,3.1,4.6,6.9,4.6,11.4C364.4,73.2,364.3,74,364.3,75z"/>
</g>
</svg>
